<?xml version="1.0" encoding="UTF-8"?>
<svg viewBox="0 0 449 687" xmlns="http://www.w3.org/2000/svg">
<path d="m300.51 387.53c-1.998 2.824-2.921 3.089-4.658 1.341-1.248-1.256-4.567-0.876-4.567 0.524 0 0.453 0.742 1.771 1.647 2.931 1.537 1.965 1.557 2.248 0.301 4.176-1.982 3.046-3.928 3.854-5.815 2.417-3.921-2.988-6.149-0.161-2.746 3.484l1.773 1.899-1.851 2.616c-3.283 4.641-0.658 6.831 3.444 2.876l2.296-2.214 3.829 3.159c4.092 3.375 4.596 4.642 2.533 6.366-1.384 1.156-1.358 4.292 0.04 4.752 0.462 0.152 1.935-0.673 3.276-1.833 2.85-2.467 3.022-2.496 5.16-0.87 4.094 3.117 7.359-0.164 3.358-3.375-1.923-1.543-2.172-2.152-1.445-3.521 1.862-3.5 3.214-3.935 6.289-2.023 3.431 2.134 4.628 2.221 5.328 0.385 0.36-0.942-0.377-2.132-2.298-3.709l-2.827-2.323 2.37-3.442c3.938-5.719 0.948-8.565-3.22-3.065-1.231 1.624-2.691 2.944-3.245 2.931-1.663-0.038-7.295-5.793-7.295-7.454 0-0.85 0.755-2.234 1.677-3.074 0.923-0.839 1.678-2.418 1.678-3.507 0-2.867-2.832-2.556-5.032 0.553zm2.446 14.318c3.698 3.268 3.702 3.277 2.258 5.496-0.796 1.222-1.995 2.433-2.665 2.692-1.642 0.634-8.688-4.662-8.735-6.566-0.026-1.061 3.498-4.966 4.451-4.931 0.543 0.019 2.654 1.509 4.691 3.309z" clip-rule="evenodd" fill-rule="evenodd"/>
<path d="m384.11 10.448c0.14 2.7356-0.303 3.3498-2.236 3.0981-1.39-0.1809-3.264 1.666-2.58 2.5424 0.222 0.2836 1.326 0.7492 2.456 1.0357 1.914 0.4847 2.065 0.6518 2.228 2.4677 0.258 2.8672-0.555 4.3172-2.43 4.3327-3.895 0.0314-3.896 2.881-1e-3 3.512l2.029 0.3287 0.13 2.5351c0.23 4.4964 2.93 4.5941 3.544 0.1293l0.343-2.4986 3.922 0.1197c4.19 0.1276 5.123 0.6766 4.685 2.7556-0.294 1.3948 1.255 3.3445 2.348 2.9544 0.36-0.1286 0.872-1.3592 1.138-2.7353 0.563-2.9269 0.656-3.0282 2.778-3.047 4.066-0.0348 4.49-3.6722 0.436-3.7412-1.948-0.033-2.402-0.2932-2.619-1.503-0.555-3.0933 0.072-4.021 2.916-4.3154 3.174-0.3284 3.96-0.8548 3.496-2.3428-0.237-0.7645-1.276-1.1517-3.24-1.2072l-2.89-0.0827-0.211-3.3034c-0.351-5.4891-3.599-5.82-3.499-0.3568 0.03 1.6138-0.231 3.1475-0.581 3.408-1.051 0.7827-7.361-0.0873-8.173-1.1269-0.416-0.5324-0.624-1.7642-0.462-2.7371 0.162-0.97298-0.14-2.3268-0.673-3.0082-1.401-1.7944-3.008-0.22657-2.854 2.7862zm8.519 7.7744c3.893 0.2517 3.9 0.2554 4.088 2.3444 0.103 1.1508-0.049 2.4904-0.338 2.9771-0.71 1.1934-7.674 1.2959-8.634 0.127-0.535-0.6514-0.255-4.8043 0.353-5.2446 0.346-0.251 2.386-0.3428 4.531-0.2039z" clip-rule="evenodd" fill-rule="evenodd"/>
<path d="m141.34 217.41c-0.95-2.23-0.978-3.86-0.099-5.643 0.663-1.345 3.004-2.345 4.666-1.994 1.732 0.367 3.874 1.359 5.749 2.662 0.907 0.631 1.723 1.117 1.815 1.081 0.092-0.037 0.335-0.817 0.54-1.734 0.674-3.006 2.994-6.143 5.256-7.106 1.048-0.446 1.487-0.434 2.853 0.077l1.613 0.604 0.954 2.247c0.764 1.803 0.941 2.613 0.891 4.095-0.188 5.641-3.919 14.205-6.699 15.375-2.226 0.937-8.072-0.406-11.391-2.617-2.884-1.921-4.998-4.343-6.148-7.047z"/>
<path d="m436.99 666.96c9e-3 -0.213 0.564-0.987 1.236-1.72 0.75-0.819 1.742-1.296 2.575-1.239 1.287 0.088 1.353 0.253 1.293 3.211l-0.063 3.118h2.927c2.21 0 3.011 0.217 3.268 0.887 0.482 1.259-0.481 2.548-2.378 3.18-3.987 1.331-4.322 2.943-1.299 6.249 1.166 1.276 1.994 2.649 1.84 3.052-0.293 0.763-3.194 1.032-3.509 0.324-0.201-0.453-2.479-1.869-5.273-3.276l-1.839-0.927-1.414 1.836c-3.422 4.438-4.113 5.025-6.032 5.12-1.62 0.08-1.918-0.094-2.077-1.218-0.102-0.722 0.375-2.507 1.059-3.967 1.459-3.115 1.084-3.647-2.578-3.66-3.437-0.013-3.689-2.151-0.414-3.519 2.026-0.847 2.289-1.886 1.034-4.081-0.426-0.746-0.783-2.027-0.794-2.847-0.023-1.768 1.018-1.947 3.153-0.542 5.767 3.796 5.806 3.806 7.661 1.985 0.885-0.868 1.616-1.753 1.624-1.966z"/>
<path d="m0.3581 561.72c0.61333-2.33 2.6355-4.908 4.3703-5.571 2.0422-0.78 8.1343 0.206 8.1343 1.316 0 0.251 0.3812 0.457 0.8471 0.457 0.4652 0 2.3198 1.464 4.1202 3.253 1.801 1.79 3.4918 3.254 3.7581 3.254s1.1572-0.7 1.9799-1.555c1.7033-1.771 7.3962-4.952 8.8615-4.952 0.5368 0 1.1269-0.244 1.3112-0.542 0.1844-0.299 1.5152-0.543 2.9571-0.543 2.1339 0 2.93 0.288 4.2754 1.545 2.0786 1.941 2.622 4.009 1.718 6.536-1.3584 3.795-5.5818 8.933-10.145 12.343-1.1328 0.845-2.3822 1.843-2.7759 2.216-0.3943 0.373-0.9854 0.678-1.3135 0.678-0.328 0-0.9815 0.329-1.4522 0.732-0.4713 0.403-2.1447 1.142-3.719 1.643-2.6052 0.828-3.0829 0.836-5.3063 0.081-1.3438-0.457-2.8009-0.83-3.238-0.83-0.437 0-0.7944-0.214-0.7944-0.476s-0.7929-0.801-1.7625-1.197c-4.8952-1.999-10.051-7.735-11.558-12.859-0.7592-2.579-0.80312-3.495-0.26843-5.529z"/>
</svg>
