<?xml version="1.0" encoding="UTF-8"?>
<svg viewBox="0 0 103 112" xmlns="http://www.w3.org/2000/svg">
<path d="m2.5683 111.11c8.2854-23.377 16.413-46.807 24.532-70.245h-3.78c2.3666 14.952 4.8445 29.889 7.2936 44.833 0.3044 1.8539 2.8936 1.8389 3.7581 0.4899 11.873-18.554 19.728-39.173 27.458-59.679-1.368-0.1884-2.7353-0.3692-4.1026-0.5576 1.5263 14.937 3.051 29.874 4.5826 44.803 0.1961 1.9217 2.8322 3.0371 3.9209 1.055 11.474-20.845 20.966-42.662 30.405-64.48 1.0675-2.4568-2.574-4.6046-3.6491-2.1176-9.4339 21.81-18.922 43.635-30.39 64.487 1.3075 0.3542 2.615 0.7009 3.9217 1.0551-1.5339-14.937-3.0745-29.866-4.6144-44.803-0.2415-2.3438-3.2539-2.811-4.1026-0.5502-7.592 20.19-15.326 40.439-26.98 58.722 1.2522 0.1658 2.5044 0.3241 3.7574 0.4899-2.4749-14.929-4.921-29.866-7.4792-44.788-0.349-2.0348-3.2274-1.6655-3.78 0-7.8093 23.513-15.61 47.033-23.25 70.6-0.51633 1.59 1.948 2.236 2.4976 0.685z" fill="#3762E3"/>
<path d="m82.195 20.249c3.5492-4.7252 7.0779-9.4579 10.588-14.213 0.424-0.56521 0.8479-1.138 1.2643-1.7032 0.2802 0.09043 0.4164 0.32404 0.4088 0.70085 0.9009 0.46724 1.5747 3.6928 2.0063 4.8006 1.1053 2.8713 2.0517 5.7878 2.892 8.742 0.5981-0.7762 1.1886-1.5524 1.7866-2.3286-6.0943 0.2713-12.185 0.5803-18.278 0.8667 0.2922 1.0701 0.5845 2.1402 0.876 3.2179 2.3257-1.3264 4.6507-2.6527 6.9772-3.9867-0.6935-0.8892-1.3855-1.786-2.0782-2.6753-1.2628 1.138-2.5846 2.0875-4.0579 2.9391 0.6882 0.8818 1.3756 1.771 2.063 2.6603 2.8709-2.9844 5.4131-6.1797 7.6768-9.6388 1.0826-1.6504-1.2947-3.3084-2.665-2.0423-1.9706 1.8238-3.4901 3.7756-4.7673 6.1345 1.0297 0.4371 2.0593 0.8666 3.0897 1.2961 0.2771-1.8237 0.8676-3.2028 1.9881-4.6497-1.0448-0.2864-2.0948-0.56532-3.1426-0.85169 0.0954 2.1704 0.651 6.858 3.8996 6.436 3.475-0.4598 2.7861-6.3606 2.4984-8.5762-0.2801-2.1403-3.0737-2.1403-3.3538 0-0.4391 3.3611 0.1665 6.3831 1.7034 9.39 0.6889 1.334 2.7179 0.9346 3.104-0.3994 0.8782-3.0295 0.8177-5.9084-0.265-8.8701-0.7495-2.0649-4.0806-1.1907-3.3311 0.91192 0.9161 2.6076 1.8397 5.2151 2.7633 7.8226 0.7192-0.7159 1.4385-1.4319 2.1577-2.1478-2.5286-0.6557-5.0119-1.025-7.6163-1.1606-1.7783-0.0905-2.3726 2.4342-0.894 3.2782 2.9155 1.658 4.6946-0.5425 7.6775-0.5576-0.2952-1.0928-0.5906-2.1931-0.8934-3.2858 0.0454 0.2863 0.0833 0.5727 0.1287 0.8591 2.1501-0.2035 2.241-3.4515 0-3.4139-6.0188 0.10551-3.1721 8.8174 1.6656 5.5994 1.4082-0.942 0.9388-3.2933-0.9009-3.2858-1.5444 0.0075-4.7318 1.7032-5.8977 1.0476-0.2952 1.0927-0.5905 2.1855-0.8858 3.2782 2.2864 0.1055 4.4668 0.4371 6.685 1.0023 1.2114 0.309 2.6195-0.844 2.1502-2.1402-0.9312-2.6076-1.87-5.2076-2.8088-7.8076-1.1129 0.30145-2.2258 0.61048-3.3311 0.91192 0.8858 2.389 1.0145 4.5971 0.3255 7.0614 1.0296-0.1356 2.0668-0.2713 3.0964-0.4069-1.3022-2.4945-1.6428-4.9287-1.2794-7.6869h-3.3538c0.1817 1.3791 0.0227 2.713 0.0984 4.0695 0.1817 3.3687 0.2347-1.8615 0.2271-1.9293-0.0757-1.7861-2.1516-2.1252-3.1388-0.844-1.2962 1.673-2.0177 3.3611-2.3364 5.4562-0.2665 1.7408 2.1009 3.1124 3.0888 1.2962 1.1372-2.095 2.4999-3.8434 4.2488-5.4486-0.8858-0.68579-1.7716-1.3641-2.665-2.0499-2.1084 3.218-4.4803 6.1722-7.1543 8.9455-1.3302 1.3716 0.3626 3.6324 2.063 2.6602 1.7299-0.9947 3.2782-2.1251 4.7658-3.4515 1.4687-1.3189-0.4164-3.6174-2.0797-2.6754-2.3325 1.3113-4.6651 2.6226-6.9984 3.9414-1.4672 0.829-0.8608 3.2934 0.8767 3.218 6.0914-0.2487 12.184-0.4446 18.278-0.633 1.174-0.0377 2.135-1.1531 1.787-2.3363-1.264-4.2278-2.741-8.3727-4.5351-12.412-0.8252-1.869-1.7942-5.7727-4.55-5.1095-2.5968 0.6255-4.379 5.3206-5.6766 7.3478-2.5324 3.9565-5.0467 7.9281-7.5518 11.9-0.6405 1.0174 0.8934 1.8389 1.5808 0.927z" fill="#3762E3"/>
</svg>
